<svg width="400" height="400" xmlns="http://www.w3.org/2000/svg" version="1.1" enable-background="new 0 0 500 500">
 <defs>
  <radialGradient gradientTransform="matrix(1,0,0,1,-56,-47)" gradientUnits="userSpaceOnUse" r="0" cy="20.8" cx="-25.872" id="t">
   <stop offset="0" stop-color="#F6F6F6"/>
   <stop offset="0.2275" stop-color="#F2F2F2"/>
   <stop offset="0.5097" stop-color="#E7E7E7"/>
   <stop offset="0.8195" stop-color="#D4D4D4"/>
   <stop offset="1" stop-color="#C6C6C6"/>
  </radialGradient>
  <linearGradient y2="0.50015" y1="0.50015" x2="1.00118" x1="0.00153" id="u">
   <stop offset="0" stop-color="#2C6B35"/>
   <stop offset="1" stop-color="#92C144"/>
  </linearGradient>
  <linearGradient y2="0.5" y1="0.5" x2="0.99943" x1="-0.00057" id="v">
   <stop offset="0" stop-color="#2C6B35"/>
   <stop offset="1" stop-color="#92C144"/>
  </linearGradient>
  <linearGradient y2="0.50036" y1="0.50036" x2="1.00005" x1="0.00077" id="w">
   <stop offset="0" stop-color="#2C6B35"/>
   <stop offset="1" stop-color="#92C144"/>
  </linearGradient>
  <linearGradient y2="0.50014" y1="0.50014" x2="1" x1="-0.0008" id="x">
   <stop offset="0" stop-color="#2C6B35"/>
   <stop offset="1" stop-color="#92C144"/>
  </linearGradient>
  <linearGradient y2="0.16765" y1="0.88259" x2="0.66446" x1="0.47027" id="y">
   <stop offset="0" stop-color="#92C144"/>
   <stop offset="1" stop-color="#2C6B35"/>
  </linearGradient>
  <linearGradient y2="0.50045" y1="0.50045" x2="0.99977" x1="-0.00025" id="z">
   <stop offset="0" stop-color="#92C144"/>
   <stop offset="1" stop-color="#2C6B35"/>
  </linearGradient>
  <linearGradient y2="0.4999" y1="0.4999" x2="1.00005" x1="0.00026" id="aa">
   <stop offset="0" stop-color="#92C144"/>
   <stop offset="1" stop-color="#2C6B35"/>
  </linearGradient>
  <linearGradient y2="0.50041" y1="0.50041" x2="1.00025" x1="0.00037" id="ab">
   <stop offset="0" stop-color="#92C144"/>
   <stop offset="1" stop-color="#2C6B35"/>
  </linearGradient>
  <linearGradient y2="0.94044" y1="-0.00485" x2="-0.04629" x1="0.90074" id="o">
   <stop offset="0" stop-color="#7BC8CD"/>
   <stop offset="1" stop-opacity="0" stop-color="#7BC8CD"/>
  </linearGradient>
  <linearGradient y2="0.5" y1="0.5" x2="1.00004" x1="0.00008" id="p">
   <stop offset="0" stop-color="#19598C"/>
   <stop offset="1" stop-opacity="0" stop-color="#19598C"/>
  </linearGradient>
  <linearGradient y2="0.49992" y1="0.49992" x2="0.99962" x1="-0.00066" id="q">
   <stop offset="0" stop-color="#2C6B35"/>
   <stop offset="0.4988" stop-color="#92C144"/>
   <stop offset="1" stop-color="#2C6B35"/>
  </linearGradient>
  <linearGradient y2="0.49873" y1="0.49873" x2="0.99929" x1="-0.00057" id="r">
   <stop offset="0" stop-color="#2C6B35"/>
   <stop offset="0.4988" stop-color="#92C144"/>
   <stop offset="1" stop-color="#2C6B35"/>
  </linearGradient>
  <linearGradient y2="0.49995" y1="0.49995" x2="0.99978" x1="-0.00024" id="s">
   <stop offset="0" stop-color="#2C6B35"/>
   <stop offset="0.4988" stop-color="#92C144"/>
   <stop offset="1" stop-color="#2C6B35"/>
  </linearGradient>
 </defs>
 <g>
  <title>Layer 1</title>
  <path id="svg_1" fill="url(#t)" d="m-81.9,-26.2"/>
  <path id="svg_2" fill="url(#u)" d="m123.4,307.4c-26.4,18.2 -43.9,31.4 -43.9,49.9c0,8.4 0,16.2 -0.1,23.5c-0.5,1.2 -0.9,2.3 -1.4,3.6c-3.4,-75.6 -10.3,-113.3 -11,-125.7c-2.7,-50.7 15.4,-118 76.3,-142.3c-23.9,55 -44.3,119.2 -19.9,191z"/>
  <path id="svg_3" fill="url(#v)" d="m178.5,267.4c-20.3,16.6 -39.3,29.2 -55,40c-24.5,-71.8 -4.1,-136 19.9,-191c6.2,-2.5 12.8,-4.5 19.9,-6c6.5,-1.4 12.8,-3.1 18.9,-5c-15.7,40.3 -22.1,109.7 -3.7,162z"/>
  <path id="svg_4" fill="url(#w)" d="m213.8,235.1l-0.6,0.6c-11.8,12 -23.5,22.4 -34.8,31.6c-18.4,-52.3 -11.9,-121.6 3.7,-162c24.2,-7.6 45,-19.1 61.8,-31.6c4.1,38.6 6.6,122.6 -30.1,161.4z"/>
  <path id="svg_5" fill="url(#x)" d="m289.2,18.9c-1.9,50.7 -11.1,139.9 -49.8,187.6c-8.5,10.4 -17,19.9 -25.5,28.6c36.6,-38.8 34.1,-122.8 30.1,-161.3c25.1,-18.9 41,-40.2 45.2,-54.9z"/>
  <path id="svg_6" fill="url(#y)" d="m337.1,135.4c-37.8,101.9 -123.8,100.4 -123.8,100.4l0.6,-0.6c8.5,-8.7 17,-18.1 25.5,-28.6c38.8,-47.7 47.9,-136.9 49.8,-187.6c0.6,-2.2 1,-4.2 1.1,-6.1c7.2,8 36,61.5 46.8,122.5z"/>
  <path id="svg_7" fill="url(#z)" d="m312.7,270.4c-57,9.8 -134.2,-3.1 -134.2,-3.1c11.3,-9.2 23,-19.6 34.8,-31.6c0,0 86,1.5 123.8,-100.4c8.2,46.4 5.9,97 -24.4,135.1z"/>
  <path id="svg_8" fill="url(#aa)" d="m312.7,270.4c-9.2,11.6 -21.1,22.1 -36.1,30.9c-12.3,6.9 -23.7,12.8 -34.4,17.9c-61.1,3.7 -118.8,-11.8 -118.8,-11.8c15.8,-10.8 34.7,-23.5 55,-40c0.1,0 77.3,12.9 134.3,3z"/>
  <path id="svg_9" fill="url(#ab)" d="m242.2,319.2c-115.4,54.9 -143.3,12.5 -162.8,61.6c0,-7.3 0.1,-15.1 0.1,-23.5c0,-18.5 17.5,-31.7 43.9,-49.9c0,0 57.7,15.5 118.8,11.8z"/>
  <path id="svg_10" opacity="0.44" fill="url(#o)" d="m239.1,207c38.8,-47.7 47.5,-136.9 49.5,-187.6c-7.8,26.9 -54.4,76.2 -125.5,91.4c-76.9,16.5 -99.1,92.5 -96.2,148.4c0.7,12.4 7.6,50.1 11,125.7c0.5,-1.3 0.9,-2.5 1.4,-3.6c0,-7.3 0.1,-15.1 0.1,-23.5c-0.2,-40.2 82,-55.3 159.7,-150.8z"/>
  <path id="svg_11" fill="url(#p)" d="m289.8,14c-0.1,1.9 -0.5,3.9 -1.1,6.1c-1.9,50.7 -11.1,139.9 -49.8,187.6c-77.7,95.4 -159.9,110.5 -159.9,150.7c0,8.4 0,16.2 -0.1,23.5c21.2,-53.7 52.6,1.9 197.1,-79.5c128.5,-75.5 28,-272.5 13.8,-288.4z"/>
  <path id="svg_12" fill="url(#q)" d="m241.7,209c38.8,-47.7 46.4,-139.3 48.4,-189.9c0.6,-2.2 0.3,-4.2 0.4,-6c0,0 0,-0.1 -0.1,-0.1c-0.1,1.9 -0.5,3.9 -1.1,6.1c-1.9,50.7 -11.5,139.9 -50.2,187.6c-77.6,95.5 -159.8,110.6 -159.8,150.8c0,8.4 0,16.2 -0.1,23.5c0,-7.3 0,-17.2 3,-25.2c18.4,-48.7 81.9,-51.3 159.5,-146.8z"/>
  <path id="svg_13" fill="url(#r)" d="m79.1,381c12.6,-31.8 28.8,-25.2 70,-31.6c-41.5,4.3 -58.6,-3.2 -70,31.6z"/>
  <path id="svg_14" fill="url(#s)" d="m168.8,112.6c71.2,-15.2 112.7,-66.9 120.5,-93.8c-7.8,26.9 -54.8,76.2 -125.9,91.4c-76.9,16.5 -99.1,92.5 -96.2,148.4c0.7,12.4 7.6,50.1 11,125.7c-3.4,-75.6 -4.9,-111 -5.5,-123.4c-3,-55.8 19.1,-131.9 96.1,-148.3z"/>
 </g>
</svg>