<?xml version="1.0" standalone="no"?><!DOCTYPE svg PUBLIC "-//W3C//DTD SVG 1.1//EN" "http://www.w3.org/Graphics/SVG/1.1/DTD/svg11.dtd"><svg class="icon" width="256px" height="256.00px" viewBox="0 0 1024 1024" version="1.1" xmlns="http://www.w3.org/2000/svg"><path d="M989.525 467.916c6.161-11.52 57.924-102.246 19.593-107.844a398.592 398.592 0 0 0-219.836 30 758.889 758.889 0 0 0-23.04-144.316 596.767 596.767 0 0 0-54.954-152.709c-8.806-15.36-21.282-38.4-39.765-43.913-13.124-3.84-29.2 11.605-37.547 20.634a349.06 349.06 0 0 0-34.936 44.199 451.052 451.052 0 0 0-52.48 108.322 383.189 383.189 0 0 0-13.363 55.04A521.2 521.2 0 0 0 424.55 175.167c-61.934-43.327-134.144-86.8-207.342-107.566a63.539 63.539 0 0 0-30-2.645c-22.323 4.966-25.207 30.959-25.122 64.478 0.478 127.846 34.475 264.721 115.2 365.995-13.517-0.563-26.88-0.887-40-0.887a744.191 744.191 0 0 0-134.724 8.533C77.6 507.75 1.195 522.001 0.8 557.704c-0.239 19.285 18.005 38.007 30.157 50.961a601.516 601.516 0 0 0 129.707 97.519 784.933 784.933 0 0 0 121.173 61.048 401.783 401.783 0 0 0-91.921 184.166c-7.765 37.922 95.113 20.327 108.083 18.483a520.039 520.039 0 0 0 169.523-45.244 365.231 365.231 0 0 0 58.249-37.837 278.716 278.716 0 0 0 15.838 66.082c6.246 16.008 40.243-15.36 44.646-19.2a257.281 257.281 0 0 0 88-163.038 10.728 10.728 0 0 0 0-1.6 116.919 116.919 0 0 0 27.836 6.485 257.57 257.57 0 0 0 177.647-52.8c4.642-3.516 42.24-30.328 27.921-39.765a290.543 290.543 0 0 0-70.485-31.915 369.334 369.334 0 0 0 51.526-39.448 514.764 514.764 0 0 0 100.83-143.684z" fill="#4f9328" stroke="#555" stroke-width="2" /><path d="M566.409 897.26a354.984 354.984 0 0 1 94.123-127.11c56.081-45.124 142.882-64.631 172.169-68.164a505.7 505.7 0 0 0-151.689 34.8s80.725-232 285.764-325.512c0 0-174.234 36.557-299.844 308.241 0 0-62.874-169.847 0-552.96 0 0-73.114 334.507-17.289 555.674 0 0-151.893-91.767-425.677-591.991 0 0 188.877 417.28 401.6 603.119 0 0-202.24-96.393-518.724-150.323 350 98.645 387.994 123.921 511.351 167.919 0 0-229.444 38.485-362.718 174.319 0 0 204.083-137.591 370.637-152.969a294.537 294.537 0 0 0-59.7 124.962z" fill="#7ba323" /><path d="M255.523 930.303a5.239 5.239 0 0 1-3.994-1.843 5.12 5.12 0 0 1 0.324-6.827C362.889 808.43 541.987 761.958 599.126 749.464c-21.282-7.765-40.158-14.967-59.921-22.562-81.289-31.113-165.359-63.283-433.766-138.957a5.12 5.12 0 0 1 2.236-9.916 2314.947 2314.947 0 0 1 491.52 138.24C397.449 523.024 221.011 136.311 219.205 132.3a5.133 5.133 0 1 1 9.2-4.557c228.88 418.134 373.606 551.049 413.012 582.076-49.289-219.767 19.763-541.2 20.48-544.427a5.018 5.018 0 0 1 6.008-3.925 5.12 5.12 0 0 1 4.079 5.837c-52.48 320.239-16.4 492.407-3.994 538.078C792.747 445.337 963.926 406.63 965.684 406.22a5.12 5.12 0 0 1 5.922 3.413 4.983 4.983 0 0 1-2.714 6.246c-175.787 80.213-260.233 265.677-279.04 312a520.786 520.786 0 0 1 142.559-31.048h0.239a5.13 5.13 0 0 1 0.631 10.24c-26.231 3.123-113.835 22.187-169.592 67.038a352.991 352.991 0 0 0-92.655 125.2 5.325 5.325 0 0 1-6.246 3.038 5.24 5.24 0 0 1-3.6-5.922 295.886 295.886 0 0 1 53.2-117.76c-161.029 20.362-354.121 149.488-356.152 150.836a4.968 4.968 0 0 1-2.713 0.802z m-34.512-319.914c182.323 53.436 253.116 80.555 321.929 106.889 24.883 9.609 48.486 18.569 77.039 28.723a5.12 5.12 0 0 1-0.887 9.916c-2 0.324-183.6 31.761-315.358 133.513 71.68-41.847 206.319-111.684 322-122.317a4.9 4.9 0 0 1 5.12 2.8 5.12 5.12 0 0 1-0.717 5.683 298.669 298.669 0 0 0-43.126 71.832 327.027 327.027 0 0 1 70.4-81.357 284.668 284.668 0 0 1 67.038-38.878c-13.278 3.994-27.307 8.721-41.523 14.319a5.12 5.12 0 0 1-6.724-6.4 675.839 675.839 0 0 1 181.723-260.318c-57.276 43.93-127.437 119.279-186.351 246.8a5.308 5.308 0 0 1-4.8 3.038 5.12 5.12 0 0 1-4.642-3.413c-0.478-1.126-26.163-73.284-28.006-225.673a876.4 876.4 0 0 0 20.48 225.28 5.205 5.205 0 0 1-1.911 5.444 5.12 5.12 0 0 1-5.683 0.239c-5.359-3.191-117.367-73.677-321.758-410.078 75.2 134.963 186.231 310.409 303.684 413.013a5.257 5.257 0 0 1 0.956 6.724 5.12 5.12 0 0 1-6.485 1.707 2058.954 2058.954 0 0 0-402.398-127.486z" fill="#7ba333" /><path d="M899.84 943.683c11.281-17.067 14.882-68.557-1.365-62.805a102.194 102.194 0 0 1-57.037-3.413 280.621 280.621 0 0 1-59.733-19.439 189.553 189.553 0 0 1-34.646-21.2 222.089 222.089 0 0 1-78.506-110.93l-2.406-6.485-35.67 26.672 1.28 3.516a250.266 250.266 0 0 0 113.272 140.884 342.328 342.328 0 0 0 58.027 25.122c26.556 9.045 62.635 11.674 84.241 31.283 4.778 4.152 9.028 2.069 12.543-3.205z" fill="#6b9313" /></svg>