<svg width="1380" height="1022" xmlns="http://www.w3.org/2000/svg" xmlns:undefined="http://www.serif.com/" clip-rule="evenodd" xml:space="preserve" version="1.1">
 <defs>
  <radialGradient gradientTransform="matrix(1.1359089612960815,0,0,1.3466310501098633,27.88127899169922,-62.55995178222656)" gradientUnits="userSpaceOnUse" r="0" cy="20.8" cx="-25.872" id="svg_34">
   <stop offset="0" stop-color="#F6F6F6"/>
   <stop offset="0.2275" stop-color="#F2F2F2"/>
   <stop offset="0.5097" stop-color="#E7E7E7"/>
   <stop offset="0.8195" stop-color="#D4D4D4"/>
   <stop offset="1" stop-color="#C6C6C6"/>
  </radialGradient>
  <linearGradient gradientTransform="matrix(1.1359089612960815,0,0,1.3466310501098633,27.88127899169922,-62.55995178222656)" gradientUnits="userSpaceOnUse" y2="297.44" y1="297.44" x2="199.39" x1="122.86" id="svg_33">
   <stop offset="0" stop-color="#2C6B35"/>
   <stop offset="1" stop-color="#92C144"/>
  </linearGradient>
  <linearGradient gradientTransform="matrix(1.1359089612960815,0,0,1.3466310501098633,27.88127899169922,-62.55995178222656)" gradientUnits="userSpaceOnUse" y2="253.4" y1="253.4" x2="238.16" x1="168.38" id="svg_32">
   <stop offset="0" stop-color="#2C6B35"/>
   <stop offset="1" stop-color="#92C144"/>
  </linearGradient>
  <linearGradient gradientTransform="matrix(1.1359089612960815,0,0,1.3466310501098633,27.88127899169922,-62.55995178222656)" gradientUnits="userSpaceOnUse" y2="217.57" y1="217.57" x2="302.15" x1="223.28" id="svg_31">
   <stop offset="0" stop-color="#2C6B35"/>
   <stop offset="1" stop-color="#92C144"/>
  </linearGradient>
  <linearGradient gradientTransform="matrix(1.1359089612960815,0,0,1.3466310501098633,27.88127899169922,-62.55995178222656)" gradientUnits="userSpaceOnUse" y2="174.03" y1="174.03" x2="345.2" x1="269.84" id="svg_30">
   <stop offset="0" stop-color="#2C6B35"/>
   <stop offset="1" stop-color="#92C144"/>
  </linearGradient>
  <linearGradient gradientTransform="matrix(1.1359089612960815,0,0,1.3466310501098633,27.88127899169922,-62.55995178222656)" gradientUnits="userSpaceOnUse" y2="97.27" y1="256.63" x2="351.56" x1="327.52" id="svg_29">
   <stop offset="0" stop-color="#92C144"/>
   <stop offset="1" stop-color="#2C6B35"/>
  </linearGradient>
  <linearGradient gradientTransform="matrix(1.1359089612960815,0,0,1.3466310501098633,27.88127899169922,-62.55995178222656)" gradientUnits="userSpaceOnUse" y2="251.75" y1="251.75" x2="397.14" x1="234.46" id="svg_28">
   <stop offset="0" stop-color="#92C144"/>
   <stop offset="1" stop-color="#2C6B35"/>
  </linearGradient>
  <linearGradient gradientTransform="matrix(1.1359089612960815,0,0,1.3466310501098633,27.88127899169922,-62.55995178222656)" gradientUnits="userSpaceOnUse" y2="340.58" y1="340.58" x2="368.71" x1="179.45" id="svg_27">
   <stop offset="0" stop-color="#92C144"/>
   <stop offset="1" stop-color="#2C6B35"/>
  </linearGradient>
  <linearGradient gradientTransform="matrix(1.1359089612960815,0,0,1.3466310501098633,27.88127899169922,-62.55995178222656)" gradientUnits="userSpaceOnUse" y2="391.13" y1="391.13" x2="298.24" x1="135.46" id="svg_26">
   <stop offset="0" stop-color="#92C144"/>
   <stop offset="1" stop-color="#2C6B35"/>
  </linearGradient>
  <linearGradient gradientTransform="matrix(1.1359089612960815,0,0,1.3466310501098633,27.88127899169922,-62.55995178222656)" gradientUnits="userSpaceOnUse" y2="410.13" y1="64.627" x2="112.38" x1="322.57" id="svg_25">
   <stop offset="0" stop-color="#7BC8CD"/>
   <stop offset="1" stop-opacity="0" stop-color="#7BC8CD"/>
  </linearGradient>
  <linearGradient gradientTransform="matrix(1.1359089612960815,0,0,1.3466310501098633,27.88127899169922,-62.55995178222656)" gradientUnits="userSpaceOnUse" y2="244.95" y1="244.95" x2="396.6" x1="134.92" id="svg_24">
   <stop offset="0" stop-color="#19598C"/>
   <stop offset="1" stop-opacity="0" stop-color="#19598C"/>
  </linearGradient>
  <linearGradient gradientTransform="matrix(1.1359089612960815,0,0,1.3466310501098633,27.88127899169922,-62.55995178222656)" gradientUnits="userSpaceOnUse" y2="243.97" y1="243.97" x2="346.42" x1="135.06" id="svg_23">
   <stop offset="0" stop-color="#2C6B35"/>
   <stop offset="0.4988" stop-color="#92C144"/>
   <stop offset="1" stop-color="#2C6B35"/>
  </linearGradient>
  <linearGradient gradientTransform="matrix(1.1359089612960815,0,0,1.3466310501098633,27.88127899169922,-62.55995178222656)" gradientUnits="userSpaceOnUse" y2="412.16" y1="412.16" x2="205.05" x1="135.06" id="svg_22">
   <stop offset="0" stop-color="#2C6B35"/>
   <stop offset="0.4988" stop-color="#92C144"/>
   <stop offset="1" stop-color="#2C6B35"/>
  </linearGradient>
  <linearGradient gradientTransform="matrix(1.1359089612960815,0,0,1.3466310501098633,27.88127899169922,-62.55995178222656)" gradientUnits="userSpaceOnUse" y2="248.53" y1="248.53" x2="345.25" x1="122.9" id="svg_21">
   <stop offset="0" stop-color="#2C6B35"/>
   <stop offset="0.4988" stop-color="#92C144"/>
   <stop offset="1" stop-color="#2C6B35"/>
  </linearGradient>
 </defs>
 <g>
  <title>Layer 1</title>
  <g  id="Layer-1">
   <g id="svg_1" transform="matrix(1 0 0 1 654.172 668.359)">
    <path id="svg_2" fill-rule="nonzero" fill="rgb(165,43,0)" d="m80,-52.648c-114.597,0 -218.172,13.779 -296.172,36.229l0,-5.071c-78,25.095 -127.681,59.959 -127.681,98.506c0,6.077 1.345,12.062 3.703,17.931l-7.984,14.321c0,0 -6.413,8.359 4.935,25.999c10.01,15.554 60.164,76.438 86.628,108.32c11.367,16.348 19.083,26.413 19.757,25.44c1.061,-1.543 -7.064,-32.229 -29.639,-67.242c-10.533,-18.805 -23.358,-43.719 -30.908,-62.12c21.081,13.342 49.189,25.445 81.189,35.861l0,-0.159c78,22.453 181.575,36.229 296.172,36.229c131.156,0 248.828,-18.046 327.828,-46.491l0,-171.258c-79,-28.447 -196.672,-46.495 -327.828,-46.495"/>
   </g>
   <g id="svg_3" transform="matrix(1 0 0 1 1099.87 554.94)">
    <path id="svg_4" fill-rule="nonzero" fill="rgb(165,43,0)" d="m80,219.601l-13.433,-27.828c0.071,-1.056 0.124,-2.114 0.124,-3.175c0,-31.548 -32.805,-60.62 -87.997,-83.901l0,167.802c25.751,-10.864 46.645,-22.984 61.586,-36.037c-4.398,17.683 -19.437,53.455 -31.428,78.611c-19.707,35.981 -26.845,67.303 -25.929,68.853c0.584,0.978 7.307,-9.393 17.222,-26.2c23.072,-32.876 66.792,-95.64 75.53,-111.627c9.899,-18.123 4.325,-26.498 4.325,-26.498"/>
   </g>
   <g id="svg_5" transform="matrix(1 0 0 1 1177.87 277.21)">
    <path id="svg_6" fill-rule="nonzero" fill="rgb(247,76,0)" d="m80,497.175l-88.296,-65.043c-0.83,-2.895 -1.66,-5.787 -2.516,-8.658l29.002,-42.016c2.961,-4.274 3.558,-9.829 1.635,-14.703c-1.925,-4.85 -6.136,-8.327 -11.117,-9.179l-49.043,-8.321c-1.898,-3.879 -3.89,-7.698 -5.889,-11.484l20.604,-47.172c2.119,-4.806 1.673,-10.39 -1.139,-14.751c-2.797,-4.383 -7.551,-6.942 -12.617,-6.743l-49.77,1.809c-2.577,-3.356 -5.194,-6.68 -7.866,-9.946l11.438,-50.56c1.159,-5.132 -0.302,-10.508 -3.879,-14.238c-3.555,-3.716 -8.722,-5.254 -13.636,-4.05l-48.478,11.919c-3.14,-2.775 -6.33,-5.513 -9.559,-8.196l1.745,-51.907c0.188,-5.254 -2.262,-10.247 -6.468,-13.163c-4.204,-2.934 -9.54,-3.376 -14.138,-1.196l-45.226,21.502c-3.64,-2.09 -7.302,-4.16 -11.005,-6.163l-7.991,-51.148c-0.812,-5.181 -4.146,-9.584 -8.815,-11.594c-4.655,-2.022 -9.99,-1.367 -14.077,1.71l-40.321,30.253c-3.97,-1.318 -7.958,-2.583 -11.996,-3.792l-17.38,-48.504c-1.766,-4.945 -5.842,-8.576 -10.81,-9.597c-4.953,-1.012 -10.048,0.703 -13.483,4.539l-33.938,37.971c-4.104,-0.471 -8.21,-0.901 -12.327,-1.259l-26.208,-44.154c-2.656,-4.472 -7.344,-7.193 -12.397,-7.193c-5.041,0 -9.739,2.721 -12.372,7.193l-26.214,44.154c-4.119,0.358 -8.244,0.788 -12.341,1.259l-33.943,-37.971c-3.437,-3.836 -8.551,-5.551 -13.487,-4.539c-4.966,1.035 -9.045,4.652 -10.806,9.597l-17.393,48.504c-4.027,1.209 -8.017,2.482 -11.997,3.792l-40.308,-30.253c-4.098,-3.088 -9.432,-3.741 -14.098,-1.71c-4.65,2.01 -7.997,6.413 -8.803,11.594l-7.997,51.148c-3.7,2.003 -7.363,4.062 -11.014,6.163l-45.222,-21.502c-4.592,-2.189 -9.952,-1.738 -14.135,1.196c-4.201,2.916 -6.656,7.909 -6.466,13.163l1.736,51.907c-3.219,2.683 -6.403,5.421 -9.558,8.196l-48.47,-11.919c-4.925,-1.195 -10.086,0.334 -13.65,4.05c-3.585,3.73 -5.039,9.106 -3.885,14.238l11.415,50.56c-2.649,3.279 -5.27,6.59 -7.839,9.946l-49.771,-1.809c-5.023,-0.148 -9.817,2.36 -12.623,6.743c-2.812,4.361 -3.237,9.945 -1.146,14.751l20.619,47.172c-2.003,3.786 -3.992,7.605 -5.906,11.484l-49.04,8.321c-4.982,0.841 -9.183,4.316 -11.12,9.179c-1.925,4.874 -1.3,10.429 1.639,14.703l29.01,42.016c-0.224,0.741 -0.43,1.49 -0.653,2.233l-82.021,87.122c0,0 -12.56,9.851 5.73,33.002c16.14,20.421 98.993,101.376 142.752,143.789c18.483,21.532 31.143,34.866 32.466,33.712c2.088,-1.832 -8.871,-41.006 -45.275,-86.97c-28.06,-41.239 -64.478,-104.666 -55.939,-111.977c0,0 9.714,-12.331 29.204,-21.207c0.713,0.571 -0.737,-0.565 0,0c0,0 411.314,189.736 792.846,3.21c43.584,-7.817 69.968,15.529 69.968,15.529c9.099,5.276 -14.463,70.495 -33.838,113.666c-26.353,49.023 -30.217,87.276 -27.982,88.602c1.409,0.842 10.998,-13.747 24.674,-36.966c33.745,-47.023 97.539,-136.665 109.214,-158.438c13.239,-24.687 0,-31.606 0,-31.606"/>
   </g>
   <g id="svg_7" transform="matrix(1 0 0 1 795.856 464.937)">
    <path id="svg_8" fill-rule="nonzero" d="m80,429.631c1.575,-1.342 2.4,-2.139 2.4,-2.139l-134.65,-12.507c109.902,-144.985 197.868,-28.018 207.238,-15.106l0,29.752l-74.988,0z"/>
   </g>
   <g id="svg_9" transform="matrix(1 0 0 1 278.418 211.791)">
    <path id="svg_10" fill-rule="nonzero" fill="rgb(247,76,0)" d="m80,523.04c0,0 -111.096,-43.25 -129.876,-89.798c0,0 130.391,-103.717 -25.621,-213.886l-4.229,140.417c0,0 -46.226,-44.594 -44.186,-122.683c0,0 -143.773,69.178 24.476,191.577c0,0 5.676,65.698 156.977,145.017l22.459,-50.644z"/>
   </g>
   <g id="svg_11" transform="matrix(1 0 0 1 729.948 492.523)">
    <path id="svg_12" fill-rule="nonzero" d="m80,182.984c0,0 41.104,-45.009 82.21,0c0,0 32.297,60.013 0,90.016c0,0 -52.85,42.009 -82.21,0c0,0 -35.232,-33.006 0,-90.016"/>
   </g>
   <g id="svg_13" transform="matrix(1 0 0 1 777.536 422.196)">
    <path id="svg_14" fill-rule="nonzero" fill="white" d="m80,270.008c0,17.523 -10.329,31.73 -23.07,31.73c-12.739,0 -23.069,-14.207 -23.069,-31.73c0,-17.529 10.33,-31.738 23.069,-31.738c12.741,0 23.07,14.209 23.07,31.738"/>
   </g>
   <g id="svg_15" transform="matrix(1 0 0 1 546.49 486.263)">
    <path id="svg_16" fill-rule="nonzero" d="m80,176.954c0,0 70.508,-31.219 89.753,38.463c0,0 20.159,81.218 -57.902,85.802c0,0 -99.541,-19.172 -31.851,-124.265"/>
   </g>
   <g id="svg_17" transform="matrix(1 0 0 1 581.903 423.351)">
    <path id="svg_18" fill-rule="nonzero" fill="white" d="m80,270.002c0,18.072 -10.653,32.729 -23.794,32.729c-13.137,0 -23.792,-14.657 -23.792,-32.729c0,-18.078 10.655,-32.731 23.792,-32.731c13.141,0 23.794,14.653 23.794,32.731"/>
   </g>
   <g id="svg_19" transform="matrix(1 0 0 1 1002.23 778.679)">
    <path id="svg_20" fill-rule="nonzero" fill="rgb(247,76,0)" d="m80,-26.808c0,0 -14.723,58.643 -106.292,120.267l-25.678,6.018c0,0 -83.066,-151.481 -200.749,19.221c0,0 36.677,-21.354 135,4.65c0,0 -45.23,69.226 -136.342,67.099c0,0 87.313,104.749 220.18,-46.554c0,0 140.455,-54.315 151.845,-170.701l-37.964,0z"/>
   </g>
  </g>
  <g stroke="null">
   <path stroke="null" fill="url(#svg_34)" d="m-1.53876,-34.55003"/>
   <path stroke="null" fill="url(#svg_33)" d="m231.66335,414.68609c-29.988,24.50869 -49.8664,42.28421 -49.8664,67.19689c0,11.3117 0,21.81542 -0.11359,31.64583c-0.56795,1.61596 -1.02232,3.09725 -1.59027,4.84787c-3.86209,-101.80531 -11.69986,-152.5733 -12.495,-169.27152c-3.06695,-68.27419 17.493,-158.90246 86.66985,-191.6256c-27.14822,74.06471 -50.32077,160.51842 -22.60459,257.20653z"/>
   <path stroke="null" fill="url(#svg_32)" d="m294.25193,360.82085c-23.05895,22.35408 -44.64122,39.32163 -62.47499,53.86524c-27.82977,-96.68811 -4.65723,-183.14182 22.60459,-257.20653c7.04264,-3.36658 14.53963,-6.05984 22.60459,-8.07979c7.38341,-1.88528 14.53963,-4.17456 21.46868,-6.73316c-17.83377,54.26923 -25.10359,147.72543 -4.20286,218.15423z"/>
   <path stroke="null" fill="url(#svg_31)" d="m334.34952,317.32466l-0.68155,0.80798c-13.40373,16.15957 -26.69386,30.16454 -39.52963,42.55354c-20.90072,-70.4288 -13.51732,-163.75034 4.20286,-218.15423c27.489,-10.2344 51.1159,-25.72065 70.19917,-42.55354c4.65723,51.97996 7.497,165.09697 -34.19086,217.34625z"/>
   <path stroke="null" fill="url(#svg_30)" d="m419.99705,26.18303c-2.15823,68.27419 -12.60859,188.39368 -56.56827,252.62799c-9.65523,14.00496 -19.31045,26.79796 -28.96568,38.51365c41.57427,-52.24928 38.7345,-165.36629 34.19086,-217.21159c28.51131,-25.45133 46.57227,-54.13457 51.34309,-73.93004z"/>
   <path stroke="null" fill="url(#svg_29)" d="m474.40709,183.06555c-42.93736,137.2217 -140.62553,135.20176 -140.62553,135.20176l0.68155,-0.80798c9.65523,-11.71569 19.31045,-24.37402 28.96568,-38.51365c44.07327,-64.2343 54.41004,-184.35379 56.56827,-252.62799c0.68155,-2.96259 1.13591,-5.65585 1.2495,-8.21445c8.17854,10.77305 40.89272,82.81781 53.16054,164.9623z"/>
   <path stroke="null" fill="url(#svg_28)" d="m446.69091,364.86074c-64.74681,13.19698 -152.43898,-4.17456 -152.43898,-4.17456c12.83577,-12.38901 26.12591,-26.39397 39.52963,-42.55354c0,0 97.68817,2.01995 140.62553,-135.20176c9.31445,62.48368 6.70186,130.62321 -27.71618,181.92985z"/>
   <path stroke="null" fill="url(#svg_27)" d="m446.69091,364.86074c-10.45036,15.62092 -23.96768,29.76055 -41.00631,41.6109c-13.97168,9.29175 -26.92104,17.23688 -39.07527,24.1047c-69.40404,4.98253 -134.94598,-15.89025 -134.94598,-15.89025c17.94736,-14.54362 39.41604,-31.64583 62.47499,-53.86524c0.11359,0 87.80576,17.37154 152.55257,4.03989z"/>
   <path stroke="null" fill="url(#svg_26)" d="m366.60933,430.57634c-131.08389,73.93004 -162.77575,16.83289 -184.92598,82.95247c0,-9.83041 0.11359,-20.33413 0.11359,-31.64583c0,-24.91267 19.87841,-42.6882 49.8664,-67.19689c0,0 65.54195,20.87278 134.94598,15.89025z"/>
   <path stroke="null" opacity="0.44" fill="url(#svg_25)" d="m363.08801,279.48433c44.07327,-64.2343 53.95568,-184.35379 56.22749,-252.62799c-8.86009,36.22438 -61.79345,102.61329 -142.55657,123.08208c-87.3514,22.21941 -112.56858,124.56337 -109.27444,199.84005c0.79514,16.69823 8.63291,67.46622 12.495,169.27152c0.56795,-1.75062 1.02232,-3.36658 1.59027,-4.84787c0,-9.83041 0.11359,-20.33413 0.11359,-31.64583c-0.22718,-54.13457 93.14453,-74.4687 181.40466,-203.07196z"/>
   <path stroke="null" fill="url(#svg_24)" d="m420.6786,19.58454c-0.11359,2.5586 -0.56795,5.25186 -1.2495,8.21445c-2.15823,68.27419 -12.60859,188.39368 -56.56827,252.62799c-88.26013,128.4686 -181.63184,148.80273 -181.63184,202.9373c0,11.3117 0,21.81542 -0.11359,31.64583c24.08127,-72.31409 59.74881,2.5586 223.88766,-107.05717c145.9643,-101.67064 31.80545,-366.95696 15.67554,-388.36839z"/>
   <path stroke="null" fill="url(#svg_23)" d="m366.04138,282.17759c44.07327,-64.2343 52.70618,-187.58571 54.97799,-255.72524c0.68155,-2.96259 0.34077,-5.65585 0.45436,-8.07979c0,0 0,-0.13466 -0.11359,-0.13466c-0.11359,2.5586 -0.56795,5.25186 -1.2495,8.21445c-2.15823,68.27419 -13.06295,188.39368 -57.02263,252.62799c-88.14654,128.60327 -181.51825,148.93739 -181.51825,203.07196c0,11.3117 0,21.81542 -0.11359,31.64583c0,-9.83041 0,-23.16205 3.40773,-33.9351c20.90072,-65.58093 93.03094,-69.08217 181.17748,-197.68544z"/>
   <path stroke="null" fill="url(#svg_22)" d="m181.34258,513.79813c14.31245,-42.82287 32.71418,-33.9351 79.51363,-42.55354c-47.14022,5.79051 -66.56427,-4.30922 -79.51363,42.55354z"/>
   <path stroke="null" fill="url(#svg_21)" d="m283.23361,152.36236c80.87672,-20.46879 128.01694,-90.08962 136.87703,-126.31399c-8.86009,36.22438 -62.24781,102.61329 -143.01094,123.08208c-87.3514,22.21941 -112.56858,124.56337 -109.27444,199.84005c0.79514,16.69823 8.63291,67.46622 12.495,169.27152c-3.86209,-101.80531 -5.56595,-149.47605 -6.2475,-166.17427c-3.40773,-75.14201 21.69586,-177.62064 109.16085,-199.70538z"/>
  </g>
 </g>
</svg>