<?xml version="1.0" standalone="no"?>
<!DOCTYPE svg PUBLIC "-//W3C//DTD SVG 20010904//EN"
 "http://www.w3.org/TR/2001/REC-SVG-20010904/DTD/svg10.dtd">
<svg version="1.0" xmlns="http://www.w3.org/2000/svg"
 width="700.000000pt" height="700.000000pt" viewBox="0 0 700.000000 700.000000"
 preserveAspectRatio="xMidYMid meet">
<metadata>
Created by potrace 1.14, written by Peter Selinger 2001-2017
</metadata>
<g transform="translate(0.000000,700.000000) scale(0.100000,-0.100000)"
fill="#000000" stroke="none">
<path d="M4843 6132 c-1 -10 -10 -43 -21 -74 -11 -31 -17 -59 -14 -62 3 -3 0
-6 -7 -6 -7 0 -10 -4 -7 -9 4 -5 2 -11 -2 -13 -4 -1 -25 -33 -46 -71 -114
-206 -373 -470 -631 -644 -336 -226 -621 -350 -1040 -453 -225 -55 -354 -105
-510 -198 -453 -269 -762 -810 -830 -1452 -4 -30 -8 -68 -10 -85 -6 -38 -7
-353 -1 -380 2 -11 7 -51 10 -90 4 -38 9 -81 11 -95 4 -26 7 -56 25 -205 12
-105 17 -145 35 -330 4 -43 12 -132 20 -235 3 -36 8 -83 10 -105 2 -22 7 -92
10 -155 3 -63 8 -124 10 -135 4 -18 17 -273 18 -338 1 -33 7 -26 32 33 58 137
149 246 240 289 60 28 179 57 270 67 39 4 72 6 74 5 2 -2 8 3 12 11 7 10 9 10
9 0 0 -7 3 -11 8 -9 4 3 34 8 67 11 85 10 124 15 175 22 25 3 54 7 65 8 11 2
43 7 70 11 28 5 55 10 60 10 6 1 12 3 15 4 5 3 50 10 90 16 14 1 26 4 28 5 3
3 9 5 57 15 54 12 54 12 63 15 4 1 12 3 17 5 6 1 13 3 18 5 4 1 10 3 15 4 6 1
87 23 117 31 6 1 13 3 18 4 4 0 22 7 41 15 19 8 37 12 40 8 3 -3 6 0 6 7 0 7
4 10 10 6 5 -3 26 2 47 11 21 9 44 16 51 15 6 -1 12 3 12 8 0 6 7 8 15 5 8 -4
15 -1 15 6 0 7 7 10 15 6 8 -3 15 -1 15 4 0 5 7 7 15 4 8 -4 15 -1 15 5 0 6 9
11 19 11 11 0 23 5 26 10 4 6 11 8 16 5 5 -4 9 -1 9 5 0 6 4 9 9 5 6 -3 26 4
45 15 20 11 37 19 39 19 1 0 15 4 30 10 16 6 33 11 38 11 5 0 9 5 9 10 0 6 6
10 13 9 6 -1 30 6 52 16 22 10 43 18 48 17 4 -1 7 3 7 8 0 6 9 10 19 10 11 0
21 5 23 10 2 6 13 12 26 13 12 0 22 5 22 9 0 4 6 7 13 5 6 -1 11 4 9 11 -1 8
2 11 7 8 5 -3 55 16 110 44 55 27 105 50 111 50 6 0 9 4 6 9 -4 5 7 12 24 16
16 4 30 11 30 17 0 6 7 8 15 4 8 -3 15 -2 15 2 0 8 67 44 73 40 1 -1 12 7 25
17 12 11 26 20 30 20 7 1 14 5 127 76 149 94 422 345 410 377 -3 7 -1 11 4 7
11 -6 89 99 149 200 80 136 187 413 207 538 3 17 9 52 15 77 40 191 49 671 15
860 -2 14 -6 43 -9 65 -11 86 -19 135 -47 270 -16 77 -31 147 -33 155 -41 164
-94 350 -107 372 -5 10 -9 22 -9 28 0 20 -103 294 -162 435 -110 257 -281 581
-313 592 -6 2 -11 -5 -12 -15z"/>
</g>
</svg>
