<?xml version="1.0" standalone="no"?>
<!DOCTYPE svg PUBLIC "-//W3C//DTD SVG 20010904//EN"
 "http://www.w3.org/TR/2001/REC-SVG-20010904/DTD/svg10.dtd">
<svg version="1.0" xmlns="http://www.w3.org/2000/svg"
 width="700.000000pt" height="700.000000pt" viewBox="0 0 700.000000 700.000000"
 preserveAspectRatio="xMidYMid meet">
<metadata>
Created by potrace 1.14, written by Peter Selinger 2001-2017
</metadata>
<g transform="translate(0.000000,700.000000) scale(0.100000,-0.100000)"
fill="#000000" stroke="none">
<path d="M4515 6667 c-168 -56 -479 -466 -665 -877 -43 -97 -118 -290 -125
-324 -3 -10 -9 -33 -14 -50 -18 -54 -49 -180 -55 -217 -6 -39 -24 -91 -25 -72
-1 16 -163 196 -276 307 -121 119 -286 257 -425 355 -63 45 -126 90 -140 101
-14 11 -31 20 -37 20 -7 0 -13 4 -13 9 0 5 -15 16 -34 25 -18 8 -39 22 -46 31
-7 8 -18 15 -25 15 -8 0 -15 4 -17 8 -4 10 -213 137 -368 222 -344 190 -745
344 -895 344 -87 1 -115 -7 -155 -40 -79 -67 -99 -171 -94 -494 2 -129 6 -251
8 -270 3 -19 7 -70 11 -113 4 -44 8 -89 11 -100 2 -12 6 -40 9 -62 2 -22 6
-54 9 -70 3 -17 8 -50 11 -75 34 -241 136 -614 240 -880 103 -265 300 -617
450 -805 l24 -30 -322 0 c-279 0 -439 -6 -561 -20 -17 -2 -60 -6 -96 -10 -36
-4 -72 -9 -80 -10 -8 -2 -37 -6 -65 -9 -125 -17 -318 -63 -427 -102 -236 -85
-338 -183 -325 -311 6 -58 41 -140 79 -185 13 -14 31 -37 40 -50 10 -13 61
-66 114 -118 126 -124 126 -123 224 -205 47 -38 87 -72 90 -75 35 -38 483
-340 504 -340 2 0 35 -19 72 -42 197 -120 504 -278 689 -353 50 -21 92 -39 94
-41 2 -1 -23 -36 -56 -76 -262 -325 -457 -719 -543 -1101 -30 -135 -21 -171
56 -213 79 -45 361 -49 604 -11 19 3 62 9 95 12 33 4 71 8 85 10 14 2 61 9
105 15 44 6 96 15 115 20 19 5 51 11 70 14 48 7 260 62 340 87 311 101 545
216 743 366 33 24 60 43 62 41 2 -3 24 -110 32 -162 8 -52 61 -224 80 -263 24
-50 56 -54 130 -17 94 48 290 224 413 370 97 116 250 389 285 512 9 28 17 52
19 52 2 0 28 -30 57 -68 105 -136 280 -296 421 -386 85 -54 259 -138 372 -181
82 -30 277 -87 346 -100 87 -17 289 -104 310 -135 3 -4 15 -12 28 -19 19 -10
28 -10 46 3 70 46 119 318 75 417 l-19 40 -52 -7 c-29 -5 -98 -8 -153 -8 -84
1 -125 8 -255 42 -248 65 -399 127 -535 218 -138 92 -248 192 -351 319 -47 58
-104 140 -104 150 0 4 21 4 48 0 54 -8 279 -8 338 0 135 19 189 29 274 52 162
43 257 82 430 176 107 59 275 183 341 254 89 94 92 129 17 177 -81 51 -191
105 -320 156 l-118 46 30 17 c33 20 174 123 223 164 73 61 243 242 339 361 99
123 249 344 318 467 101 181 281 555 311 647 38 115 46 232 20 281 -17 33 -67
52 -155 62 -38 4 -81 9 -95 12 -42 7 -360 7 -446 -1 -281 -26 -528 -83 -773
-178 -57 -22 -105 -38 -107 -36 -2 2 -6 37 -10 78 -3 41 -8 95 -11 120 -10 89
-25 205 -29 230 -3 14 -8 45 -11 70 -5 37 -56 297 -69 350 -2 8 -11 44 -20 80
-9 36 -18 76 -21 90 -13 68 -89 331 -125 436 -80 234 -212 523 -303 663 -103
160 -202 228 -291 198z"/>
</g>
</svg>
